<?xml version="1.0" standalone="no"?>
<svg viewBox="0 0 200 200" xmlns="http://www.w3.org/2000/svg">
  <path fill="#2F2E41" d="M17.8,-29.7C25.9,-26.1,37.5,-27.2,49,-23C60.5,-18.9,71.9,-9.4,69.2,-1.6C66.4,6.2,49.4,12.5,43,25.4C36.6,38.4,40.7,58.1,35.3,62.8C29.9,67.5,15,57.2,1.2,55.1C-12.5,53,-25.1,59.1,-36.6,57.9C-48.1,56.7,-58.6,48.3,-63.6,37.4C-68.6,26.6,-68.1,13.3,-59.1,5.2C-50.2,-2.9,-32.7,-5.9,-29.5,-19.8C-26.3,-33.8,-37.3,-58.8,-34.8,-65.6C-32.2,-72.4,-16.1,-61.1,-5.7,-51.3C4.8,-41.5,9.6,-33.2,17.8,-29.7Z" transform="translate(100 100)" />
</svg>
