<svg xmlns="http://www.w3.org/2000/svg" xmlns:xlink="http://www.w3.org/1999/xlink" viewBox="0 0 1440 263.7"><defs><style>.cls-1{fill:#6b01bf;}.cls-2{fill:url(#Gradient_bez_nazwy_9);}.cls-3{fill:#6301ff;}</style><linearGradient id="Gradient_bez_nazwy_9" x1="251.54" y1="130.21" x2="1349.41" y2="321.19" gradientUnits="userSpaceOnUse"><stop offset="0.05"/><stop offset="0.61" stop-opacity="0.9"/><stop offset="0.67" stop-opacity="0.9"/></linearGradient></defs><title>darkPurpleWave</title><g id="Warstwa_2" data-name="Warstwa 2"><g id="Warstwa_1-2" data-name="Warstwa 1"><g id="Warstwa_1-2-2" data-name="Warstwa 1-2"><path class="cls-1" d="M577.94,111.28l35.13-29.83-140-33L272.8,1.21a44.71,44.71,0,0,0-25.1,1.3L188.62,23.2l-.32-.09-28,9.79L523,123.68A60.79,60.79,0,0,0,577.94,111.28Z"/><path class="cls-2" d="M1313.09,210.64a42.43,42.43,0,0,1-25.75,1.88l-74.06-17.84-22,8.83a75.61,75.61,0,0,1-45.8,3.6L613.07,81.45l-35.13,29.83a60.79,60.79,0,0,1-55,12.4L162.48,32.15,0,89V263.7H1440v-104Z"/><path class="cls-3" d="M1314.72,213.7,1440,164.29V103.71l-204.4,82-22.32,9,74.06,17.84C1295.91,214.58,1306.54,217,1314.72,213.7Z"/></g></g></g></svg>