<svg width="1039" height="153" viewBox="0 0 1039 153" fill="none" xmlns="http://www.w3.org/2000/svg">
<path d="M55.936 113L32.032 71.96H16.192V113H3.08801V12.632H35.488C43.072 12.632 49.456 13.928 54.64 16.52C59.92 19.112 63.856 22.616 66.448 27.032C69.04 31.448 70.336 36.488 70.336 42.152C70.336 49.064 68.32 55.16 64.288 60.44C60.352 65.72 54.4 69.224 46.432 70.952L71.632 113H55.936ZM16.192 61.448H35.488C42.592 61.448 47.92 59.72 51.472 56.264C55.024 52.712 56.8 48.008 56.8 42.152C56.8 36.2 55.024 31.592 51.472 28.328C48.016 25.064 42.688 23.432 35.488 23.432H16.192V61.448Z" stroke="white" stroke-width="5"/>
<path d="M85.8014 73.256C85.8014 65.192 87.4334 58.136 90.6974 52.088C93.9614 45.944 98.4254 41.192 104.089 37.832C109.849 34.472 116.233 32.792 123.241 32.792C130.153 32.792 136.153 34.28 141.241 37.256C146.329 40.232 150.121 43.976 152.617 48.488V34.088H165.865V113H152.617V98.312C150.025 102.92 146.137 106.76 140.953 109.832C135.865 112.808 129.913 114.296 123.097 114.296C116.089 114.296 109.753 112.568 104.089 109.112C98.4254 105.656 93.9614 100.808 90.6974 94.568C87.4334 88.328 85.8014 81.224 85.8014 73.256ZM152.617 73.4C152.617 67.448 151.417 62.264 149.017 57.848C146.617 53.432 143.353 50.072 139.225 47.768C135.193 45.368 130.729 44.168 125.833 44.168C120.937 44.168 116.473 45.32 112.441 47.624C108.409 49.928 105.193 53.288 102.793 57.704C100.393 62.12 99.1934 67.304 99.1934 73.256C99.1934 79.304 100.393 84.584 102.793 89.096C105.193 93.512 108.409 96.92 112.441 99.32C116.473 101.624 120.937 102.776 125.833 102.776C130.729 102.776 135.193 101.624 139.225 99.32C143.353 96.92 146.617 93.512 149.017 89.096C151.417 84.584 152.617 79.352 152.617 73.4Z" stroke="white" stroke-width="5"/>
<path d="M220.122 44.888H203.562V113H190.458V44.888H180.234V34.088H190.458V28.472C190.458 19.64 192.714 13.208 197.226 9.17601C201.834 5.04801 209.178 2.98401 219.258 2.98401V13.928C213.498 13.928 209.418 15.08 207.018 17.384C204.714 19.592 203.562 23.288 203.562 28.472V34.088H220.122V44.888Z" stroke="white" stroke-width="5"/>
<path d="M230.505 73.256C230.505 65.192 232.137 58.136 235.401 52.088C238.665 45.944 243.129 41.192 248.793 37.832C254.553 34.472 260.936 32.792 267.944 32.792C274.856 32.792 280.857 34.28 285.945 37.256C291.033 40.232 294.824 43.976 297.32 48.488V34.088H310.569V113H297.32V98.312C294.728 102.92 290.84 106.76 285.656 109.832C280.568 112.808 274.617 114.296 267.801 114.296C260.793 114.296 254.457 112.568 248.793 109.112C243.129 105.656 238.665 100.808 235.401 94.568C232.137 88.328 230.505 81.224 230.505 73.256ZM297.32 73.4C297.32 67.448 296.12 62.264 293.72 57.848C291.32 53.432 288.056 50.072 283.928 47.768C279.896 45.368 275.432 44.168 270.536 44.168C265.64 44.168 261.177 45.32 257.145 47.624C253.113 49.928 249.897 53.288 247.497 57.704C245.097 62.12 243.897 67.304 243.897 73.256C243.897 79.304 245.097 84.584 247.497 89.096C249.897 93.512 253.113 96.92 257.145 99.32C261.177 101.624 265.64 102.776 270.536 102.776C275.432 102.776 279.896 101.624 283.928 99.32C288.056 96.92 291.32 93.512 293.72 89.096C296.12 84.584 297.32 79.352 297.32 73.4Z" stroke="white" stroke-width="5"/>
<path d="M356.473 55.4L346.249 59.432V113H333.145V64.472L322.921 68.504V58.136L333.145 54.248V6.44001H346.249V49.064L356.473 45.176V55.4Z" stroke="white" stroke-width="5"/>
<path d="M509.052 13.352V113H495.948V38.696L462.828 113H453.612L420.348 38.552V113H407.244V13.352H421.356L458.22 95.72L495.084 13.352H509.052Z" stroke="white" stroke-width="5"/>
<path d="M526.38 73.256C526.38 65.192 528.012 58.136 531.276 52.088C534.54 45.944 539.003 41.192 544.667 37.832C550.427 34.472 556.812 32.792 563.82 32.792C570.732 32.792 576.732 34.28 581.82 37.256C586.908 40.232 590.699 43.976 593.195 48.488V34.088H606.443V113H593.195V98.312C590.603 102.92 586.715 106.76 581.531 109.832C576.443 112.808 570.491 114.296 563.675 114.296C556.667 114.296 550.331 112.568 544.667 109.112C539.003 105.656 534.54 100.808 531.276 94.568C528.012 88.328 526.38 81.224 526.38 73.256ZM593.195 73.4C593.195 67.448 591.996 62.264 589.596 57.848C587.196 53.432 583.932 50.072 579.804 47.768C575.772 45.368 571.307 44.168 566.411 44.168C561.515 44.168 557.052 45.32 553.02 47.624C548.988 49.928 545.772 53.288 543.372 57.704C540.972 62.12 539.771 67.304 539.771 73.256C539.771 79.304 540.972 84.584 543.372 89.096C545.772 93.512 548.988 96.92 553.02 99.32C557.052 101.624 561.515 102.776 566.411 102.776C571.307 102.776 575.772 101.624 579.804 99.32C583.932 96.92 587.196 93.512 589.596 89.096C591.996 84.584 593.195 79.352 593.195 73.4Z" stroke="white" stroke-width="5"/>
<path d="M652.348 55.4L642.124 59.432V113H629.02V64.472L618.796 68.504V58.136L629.02 54.248V6.44001H642.124V49.064L652.348 45.176V55.4Z" stroke="white" stroke-width="5"/>
<path d="M732.697 34.088L685.177 150.152H671.641L687.193 112.136L655.369 34.088H669.913L694.681 98.024L719.161 34.088H732.697Z" stroke="white" stroke-width="5"/>
<path d="M773.805 114.296C767.757 114.296 762.333 113.288 757.533 111.272C752.733 109.16 748.941 106.28 746.157 102.632C743.373 98.888 741.837 94.616 741.549 89.816H755.085C755.469 93.752 757.293 96.968 760.557 99.464C763.917 101.96 768.285 103.208 773.661 103.208C778.653 103.208 782.589 102.104 785.469 99.896C788.349 97.688 789.789 94.904 789.789 91.544C789.789 88.088 788.253 85.544 785.181 83.912C782.109 82.184 777.357 80.504 770.925 78.872C765.069 77.336 760.269 75.8 756.525 74.264C752.877 72.632 749.709 70.28 747.021 67.208C744.429 64.04 743.133 59.912 743.133 54.824C743.133 50.792 744.333 47.096 746.733 43.736C749.133 40.376 752.541 37.736 756.957 35.816C761.373 33.8 766.413 32.792 772.077 32.792C780.813 32.792 787.869 35 793.245 39.416C798.621 43.832 801.501 49.88 801.885 57.56H788.781C788.493 53.432 786.813 50.12 783.741 47.624C780.765 45.128 776.733 43.88 771.645 43.88C766.941 43.88 763.197 44.888 760.413 46.904C757.629 48.92 756.237 51.56 756.237 54.824C756.237 57.416 757.053 59.576 758.685 61.304C760.413 62.936 762.525 64.28 765.021 65.336C767.613 66.296 771.165 67.4 775.677 68.648C781.341 70.184 785.949 71.72 789.501 73.256C793.053 74.696 796.077 76.904 798.573 79.88C801.165 82.856 802.509 86.744 802.605 91.544C802.605 95.864 801.405 99.752 799.005 103.208C796.605 106.664 793.197 109.4 788.781 111.416C784.461 113.336 779.469 114.296 773.805 114.296Z" stroke="white" stroke-width="5"/>
<path d="M830.896 102.2H869.632V113H815.92V102.2L854.224 44.744H816.208V34.088H869.344V44.744L830.896 102.2Z" stroke="white" stroke-width="5"/>
<path d="M930.699 113L899.739 78.152V113H886.635V6.44001H899.739V69.08L930.123 34.088H948.411L911.259 73.4L948.555 113H930.699Z" stroke="white" stroke-width="5"/>
<path d="M995.16 114.296C987.768 114.296 981.048 112.616 975 109.256C969.048 105.896 964.344 101.144 960.888 95C957.528 88.76 955.848 81.56 955.848 73.4C955.848 65.336 957.576 58.232 961.032 52.088C964.584 45.848 969.384 41.096 975.432 37.832C981.48 34.472 988.248 32.792 995.736 32.792C1003.22 32.792 1009.99 34.472 1016.04 37.832C1022.09 41.096 1026.84 45.8 1030.3 51.944C1033.85 58.088 1035.62 65.24 1035.62 73.4C1035.62 81.56 1033.8 88.76 1030.15 95C1026.6 101.144 1021.75 105.896 1015.61 109.256C1009.46 112.616 1002.65 114.296 995.16 114.296ZM995.16 102.776C999.864 102.776 1004.28 101.672 1008.41 99.464C1012.54 97.256 1015.85 93.944 1018.34 89.528C1020.94 85.112 1022.23 79.736 1022.23 73.4C1022.23 67.064 1020.98 61.688 1018.49 57.272C1015.99 52.856 1012.73 49.592 1008.7 47.48C1004.66 45.272 1000.3 44.168 995.592 44.168C990.792 44.168 986.376 45.272 982.344 47.48C978.408 49.592 975.24 52.856 972.84 57.272C970.44 61.688 969.24 67.064 969.24 73.4C969.24 79.832 970.392 85.256 972.696 89.672C975.096 94.088 978.264 97.4 982.2 99.608C986.136 101.72 990.456 102.776 995.16 102.776Z" stroke="white" stroke-width="5"/>
</svg>
