<svg xmlns="http://www.w3.org/2000/svg" xmlns:xlink="http://www.w3.org/1999/xlink" viewBox="0 0 1440 263.71"><defs><style>.cls-1{fill:#c7a971;}.cls-2{fill:url(#Gradient_bez_nazwy);}.cls-3{fill:url(#Gradient_bez_nazwy-2);}.cls-4{fill:#dec79b;}</style><linearGradient id="Gradient_bez_nazwy" x1="720" y1="976.83" x2="720" y2="969.68" gradientTransform="translate(1440 1435.7) rotate(180)" gradientUnits="userSpaceOnUse"><stop offset="0" stop-color="#363536" stop-opacity="0.9"/><stop offset="0.93" stop-opacity="0.8"/></linearGradient><linearGradient id="Gradient_bez_nazwy-2" x1="386.71" y1="976.83" x2="386.71" y2="969.68" xlink:href="#Gradient_bez_nazwy"/></defs><title>waveAbout</title><g id="Warstwa_2" data-name="Warstwa 2"><g id="Warstwa_1-2" data-name="Warstwa 1"><path class="cls-1" d="M917,140.1a60.86,60.86,0,0,0-55,12.4l-35,29.7,140,33,200.2,47.3a44.73,44.73,0,0,0,25.1-1.3l59.1-20.7.3.1,28-9.8-.12,0-2.08.73Z"/><path class="cls-2" d="M1440,0H0V99.4L125.3,50c8-3.21,18.25-1,26.63,1l.77.16L226.8,69l22-8.8a75.58,75.58,0,0,1,45.8-3.6L826.9,182.3l.11-.1h0l35.1-29.8A60.66,60.66,0,0,1,917,140l362.58,90.77L1440,174.7Z"/><path class="cls-1" d="M862.1,152.4,827,182.2h0l35-29.7a60.86,60.86,0,0,1,55-12.4l360.5,91.4,2.08-.73L917,140A60.66,60.66,0,0,0,862.1,152.4Z"/><path class="cls-3" d="M862.1,152.4,827,182.2h0l35-29.7a60.86,60.86,0,0,1,55-12.4l360.5,91.4,2.08-.73L917,140A60.66,60.66,0,0,0,862.1,152.4Z"/><path class="cls-4" d="M125.3,50,0,99.4V160L204.4,78l22.3-9L152.6,51.2l-.67-.16C143.55,49,133.29,46.79,125.3,50Z"/></g></g></svg>