<svg xmlns="http://www.w3.org/2000/svg" viewBox="0 0 1440 263.71"><defs><style>.cls-1{fill:#3192f1;}.cls-2{fill:#fff;}.cls-3{fill:#1fd3a4;}</style></defs><title>wave3</title><g id="Warstwa_2" data-name="Warstwa 2"><g id="Warstwa_1-2" data-name="Warstwa 1"><path class="cls-1" d="M577.94,111.28l35.13-29.83-140-33L272.8,1.21a44.69,44.69,0,0,0-25.1,1.3L188.62,23.2l-.32-.09-28,9.79L523,123.68A60.78,60.78,0,0,0,577.94,111.28Z"/><path class="cls-2" d="M1313.09,210.64a42.43,42.43,0,0,1-25.75,1.88l-74.06-17.84-22,8.83a75.58,75.58,0,0,1-45.8,3.6L613.07,81.45l-35.13,29.83a60.78,60.78,0,0,1-55,12.4L162.48,32.15,0,89v174.7H1440v-104Z"/><path class="cls-3" d="M1314.72,213.7,1440,164.29V103.71l-204.4,82-22.32,9,74.06,17.84C1295.91,214.58,1306.54,217,1314.72,213.7Z"/></g></g></svg>