<svg xmlns="http://www.w3.org/2000/svg" xmlns:xlink="http://www.w3.org/1999/xlink" viewBox="0 0 1440 263.7"><defs><style>.cls-1{fill:#d4ba89;}.cls-2{fill:url(#Gradient_bez_nazwy);}.cls-3{fill:#dec79b;}</style><linearGradient id="Gradient_bez_nazwy" x1="720" y1="524.35" x2="720" y2="532.52" gradientUnits="userSpaceOnUse"><stop offset="0" stop-color="#363536" stop-opacity="0.9"/><stop offset="0.93" stop-opacity="0.8"/></linearGradient></defs><title>waveAbout2</title><g id="Warstwa_2" data-name="Warstwa 2"><g id="Warstwa_1-2" data-name="Warstwa 1"><path class="cls-1" d="M567.56,92.7l469.52-66.21A72.09,72.09,0,0,0,1052,22.71L978.52,2.15A57.9,57.9,0,0,0,954.77.57l-487.57,69,70.07,20.88A71.32,71.32,0,0,0,567.56,92.7Z"/><path class="cls-2" d="M1309.29,83.13a57.91,57.91,0,0,1-35.94,1.53L1052,22.71a72.09,72.09,0,0,1-14.91,3.78L567.56,92.7a71.32,71.32,0,0,1-30.29-2.26L467.2,69.56,338.83,87.72a58,58,0,0,1-28.06-3l-14.42-5.28L230.57,88a35.21,35.21,0,0,1-18.31-2.51L125.48,48.7A35.28,35.28,0,0,1,104.67,9.3a58,58,0,0,0-53.7,9L0,57.37V263.7H1440V34.22Z"/><path class="cls-3" d="M125.48,48.7l86.78,36.81A35.21,35.21,0,0,0,230.57,88l65.78-8.54L106.19,9.83l-1.52-.53A35.28,35.28,0,0,0,125.48,48.7Z"/></g></g></svg>