<svg xmlns="http://www.w3.org/2000/svg" xmlns:xlink="http://www.w3.org/1999/xlink" viewBox="0 0 1440 263.71"><defs><style>.cls-1{fill:#c7a971;}.cls-2{fill:url(#Gradient_bez_nazwy);}.cls-3{fill:#dec79b;}</style><linearGradient id="Gradient_bez_nazwy" x1="720" y1="461.18" x2="720" y2="468.33" gradientTransform="matrix(1, 0, 0, -1, 0, 266.03)" gradientUnits="userSpaceOnUse"><stop offset="0" stop-color="#363536" stop-opacity="0.9"/><stop offset="0.93" stop-opacity="0.8"/></linearGradient></defs><title>waveBrown</title><g id="Warstwa_2" data-name="Warstwa 2"><g id="Warstwa_1-2" data-name="Warstwa 1"><g id="Warstwa_1-2-2" data-name="Warstwa 1-2"><path class="cls-1" d="M577.9,111.31,613,81.51l-140-33L272.8,1.21a44.73,44.73,0,0,0-25.1,1.3l-59.1,20.7-.3-.1-28,9.8L523,123.71A60.66,60.66,0,0,0,577.9,111.31Z"/><path class="cls-2" d="M1313.1,210.61a43,43,0,0,1-25.8,1.9l-74.1-17.8-22,8.8a75.58,75.58,0,0,1-45.8,3.6L613.1,81.41,578,111.21a60.86,60.86,0,0,1-55,12.4L162.5,32.21,0,89v174.7H1440v-104Z"/><path class="cls-3" d="M1314.7,213.71l125.3-49.4v-60.6l-204.4,82-22.3,9,74.1,17.8C1295.9,214.61,1306.5,217,1314.7,213.71Z"/></g></g></g></svg>