<svg xmlns="http://www.w3.org/2000/svg" xmlns:xlink="http://www.w3.org/1999/xlink" viewBox="0 0 1443.4 200.84"><defs><style>.cls-1{fill:#c7a971;}.cls-2{fill:url(#Gradient_bez_nazwy);}.cls-3{fill:#dec79b;}</style><linearGradient id="Gradient_bez_nazwy" x1="721.7" y1="288.9" x2="721.7" y2="294.35" gradientTransform="matrix(1, 0, 0, -1, 0, 140.28)" gradientUnits="userSpaceOnUse"><stop offset="0" stop-color="#363536" stop-opacity="0.9"/><stop offset="0.93" stop-opacity="0.8"/></linearGradient></defs><title>waveBrown2</title><g id="Warstwa_2" data-name="Warstwa 2"><g id="Warstwa_1-2" data-name="Warstwa 1"><g id="Warstwa_1-2-2" data-name="Warstwa 1-2"><path class="cls-1" d="M579.27,84.77l35.18-22.69L474.12,37,273.44.92a58.46,58.46,0,0,0-25.15,1L189.05,17.68l-.3-.08-28.07,7.47L524.24,94.22C543.48,98.1,564.13,94.6,579.27,84.77Z"/><path class="cls-2" d="M1316.2,160.4a56,56,0,0,1-25.86,1.45l-74.27-13.56-22,6.7a98.42,98.42,0,0,1-45.91,2.74L614.55,62,579.37,84.7c-15.24,9.82-35.79,13.32-55.13,9.44L162.88,24.53,0,67.79V200.84H1443.4V121.63Z"/><path class="cls-3" d="M1317.81,162.76l125.59-37.62V79l-204.88,62.44-22.35,6.86,74.27,13.56C1299,163.44,1309.59,165.27,1317.81,162.76Z"/></g></g></g></svg>